<svg width="172" height="35" viewBox="0 0 172 35" fill="none" xmlns="http://www.w3.org/2000/svg">
<path d="M1.84375 19.5312C1.61458 19.4271 1.39583 19.2604 1.1875 19.0312C1 18.8021 0.90625 18.5729 0.90625 18.3438C0.90625 18.0521 0.989583 17.8021 1.15625 17.5938C1.34375 17.3854 1.4375 17.1354 1.4375 16.8438C1.4375 16.3646 1.375 15.8854 1.25 15.4062C1.14583 14.9271 1.125 14.4375 1.1875 13.9375L0.28125 5.125V5.0625C0.28125 4.8125 0.385417 4.55208 0.59375 4.28125C0.802083 4.01042 1.04167 3.89583 1.3125 3.9375C1.375 3.9375 1.45833 3.95833 1.5625 4C1.6875 4.02083 1.82292 4.0625 1.96875 4.125C2.11458 4.16667 2.23958 4.21875 2.34375 4.28125C2.46875 4.34375 2.5625 4.40625 2.625 4.46875C2.66667 4.51042 2.73958 4.63542 2.84375 4.84375C2.94792 5.05208 3.01042 5.1875 3.03125 5.25C3.19792 5.85417 3.27083 6.53125 3.25 7.28125C3.25 8.01042 3.27083 8.69792 3.3125 9.34375C3.33333 9.57292 3.35417 9.9375 3.375 10.4375C3.41667 10.9167 3.45833 11.4062 3.5 11.9062C3.5625 12.3854 3.625 12.8125 3.6875 13.1875C3.75 13.5417 3.8125 13.7188 3.875 13.7188L3.9375 13.6875C5 12.625 5.92708 11.5312 6.71875 10.4062C7.53125 9.26042 8.19792 7.98958 8.71875 6.59375C8.71875 6.55208 8.73958 6.46875 8.78125 6.34375C8.82292 6.21875 8.86458 6.09375 8.90625 5.96875C8.94792 5.82292 8.97917 5.6875 9 5.5625C9.04167 5.41667 9.07292 5.3125 9.09375 5.25C9.09375 5.25 9.10417 5.1875 9.125 5.0625C9.14583 4.9375 9.17708 4.8125 9.21875 4.6875C9.26042 4.54167 9.30208 4.40625 9.34375 4.28125C9.40625 4.15625 9.46875 4.09375 9.53125 4.09375H10.9688C11.1146 4.09375 11.2292 4.14583 11.3125 4.25C11.4167 4.35417 11.5 4.47917 11.5625 4.625C11.625 4.77083 11.6667 4.91667 11.6875 5.0625C11.7083 5.1875 11.7188 5.29167 11.7188 5.375C11.7188 5.39583 11.6979 5.44792 11.6562 5.53125C11.6354 5.59375 11.6146 5.63542 11.5938 5.65625V5.90625C11.4271 6.48958 11.25 7.02083 11.0625 7.5C10.875 7.97917 10.6667 8.44792 10.4375 8.90625C10.2292 9.36458 9.98958 9.82292 9.71875 10.2812C9.44792 10.7396 9.15625 11.2292 8.84375 11.75C8.73958 11.9167 8.57292 12.1042 8.34375 12.3125C8.11458 12.5 7.96875 12.7083 7.90625 12.9375L5.03125 16.3438L4.625 17.1562H4.75C5.64583 16.9271 6.5 16.7604 7.3125 16.6562C8.14583 16.5521 8.96875 16.4792 9.78125 16.4375C10.5938 16.3958 11.4167 16.375 12.25 16.375C13.0833 16.375 13.9688 16.3646 14.9062 16.3438C14.9271 16.3438 15 16.3438 15.125 16.3438C15.25 16.3229 15.375 16.3021 15.5 16.2812C15.625 16.2604 15.7396 16.25 15.8438 16.25C15.9688 16.2292 16.0521 16.2188 16.0938 16.2188H16.375C16.6042 16.2188 16.8542 16.2604 17.125 16.3438C17.4167 16.4271 17.6042 16.6146 17.6875 16.9062C17.7708 17.1354 17.7292 17.3854 17.5625 17.6562C17.4167 17.9062 17.2396 18.0833 17.0312 18.1875C16.9688 18.2083 16.8542 18.2292 16.6875 18.25C16.5417 18.2708 16.3854 18.3021 16.2188 18.3438C16.0521 18.3646 15.8958 18.3958 15.75 18.4375C15.6042 18.4583 15.5 18.4688 15.4375 18.4688H15.0312C14.5938 18.4896 14.0417 18.5 13.375 18.5C12.7292 18.5 12.1042 18.5104 11.5 18.5312C10.7917 18.5521 10.0417 18.5729 9.25 18.5938L4.625 19.5312V19.7188C4.625 20.1771 4.6875 20.625 4.8125 21.0625C4.95833 21.5 5.03125 21.9479 5.03125 22.4062C5.03125 22.8229 4.92708 23.1979 4.71875 23.5312C4.51042 23.8438 4.16667 24 3.6875 24C3.4375 24 3.16667 23.8646 2.875 23.5938C2.58333 23.3229 2.40625 23.0625 2.34375 22.8125L1.84375 19.5312ZM31.75 15.125C31.7083 15.5 31.6562 15.7917 31.5938 16C31.5521 16.2083 31.4688 16.3958 31.3438 16.5625C31.2188 16.7292 31.0417 16.9062 30.8125 17.0938C30.5833 17.2604 30.2708 17.5104 29.875 17.8438C29.4792 18.1562 28.9896 18.5729 28.4062 19.0938C27.8229 19.6146 27.1146 20.2917 26.2812 21.125C25.9479 21.4375 25.6042 21.7604 25.25 22.0938C24.8958 22.4271 24.5208 22.7292 24.125 23C23.75 23.25 23.3542 23.4583 22.9375 23.625C22.5208 23.7917 22.0833 23.875 21.625 23.875C20.7292 23.875 20.0729 23.5729 19.6562 22.9688C19.2396 22.3646 19.0312 21.6667 19.0312 20.875C19.0312 20.3542 19.0417 19.9167 19.0625 19.5625C19.1042 19.2083 19.1875 18.75 19.3125 18.1875C19.0833 17.9792 18.8854 17.8021 18.7188 17.6562C18.5521 17.4896 18.4688 17.2708 18.4688 17C18.4688 16.75 18.5208 16.5833 18.625 16.5C18.75 16.4167 18.8854 16.3646 19.0312 16.3438C19.1979 16.3021 19.3542 16.2604 19.5 16.2188C19.6458 16.1771 19.75 16.0938 19.8125 15.9688C19.8542 15.8438 19.9271 15.6146 20.0312 15.2812C20.1562 14.9479 20.2812 14.6042 20.4062 14.25C20.5312 13.875 20.6458 13.5312 20.75 13.2188C20.875 12.8854 20.9583 12.6562 21 12.5312C21.1458 12.1771 21.3021 11.8229 21.4688 11.4688C21.6562 11.0938 21.8646 10.7604 22.0938 10.4688C22.3438 10.1771 22.625 9.9375 22.9375 9.75C23.2708 9.5625 23.6562 9.46875 24.0938 9.46875C24.3438 9.46875 24.6458 9.58333 25 9.8125C25.375 10.0417 25.7292 10.3229 26.0625 10.6562C26.3958 10.9688 26.6771 11.3021 26.9062 11.6562C27.1354 12.0104 27.25 12.3125 27.25 12.5625C27.25 12.875 27.1771 13.1667 27.0312 13.4375C26.8854 13.6875 26.6979 13.9271 26.4688 14.1562C26.2604 14.3646 26.0312 14.5625 25.7812 14.75C25.5312 14.9375 25.3021 15.1146 25.0938 15.2812C25.0729 15.2812 25.0312 15.3021 24.9688 15.3438C24.9062 15.3854 24.8542 15.4167 24.8125 15.4375C24.7917 15.4583 24.7396 15.5104 24.6562 15.5938C24.5938 15.6562 24.5208 15.7292 24.4375 15.8125C24.3542 15.8958 24.2708 15.9792 24.1875 16.0625C24.125 16.1458 24.0833 16.1979 24.0625 16.2188C24 16.2812 23.875 16.3854 23.6875 16.5312C23.5208 16.6562 23.3333 16.8021 23.125 16.9688C22.9167 17.1146 22.7188 17.2604 22.5312 17.4062C22.3646 17.5312 22.25 17.6146 22.1875 17.6562L22.0625 17.9062C22.0208 17.9896 21.9792 18.1771 21.9375 18.4688C21.9167 18.7396 21.8854 19.0521 21.8438 19.4062C21.8021 19.7604 21.7604 20.125 21.7188 20.5C21.6979 20.8542 21.6875 21.1458 21.6875 21.375C21.6875 21.3958 21.6979 21.4167 21.7188 21.4375C21.7604 21.4792 21.7917 21.5 21.8125 21.5C21.9792 21.5 22.1354 21.4271 22.2812 21.2812C22.4271 21.1354 22.5833 21.0312 22.75 20.9688L27.75 16.3438L29.0312 14.375C29.1354 14.2292 29.3333 14.0729 29.625 13.9062C29.9375 13.7188 30.25 13.625 30.5625 13.625C30.875 13.6042 31.1458 13.6979 31.375 13.9062C31.625 14.1146 31.75 14.5208 31.75 15.125ZM24.875 12.6875C24.9792 12.6042 25.0208 12.4792 25 12.3125C24.9792 12.1458 24.9167 12 24.8125 11.875C24.7292 11.75 24.6146 11.6771 24.4688 11.6562C24.3229 11.6146 24.1875 11.6875 24.0625 11.875C24 11.9583 23.8854 12.125 23.7188 12.375C23.5729 12.625 23.4167 12.8854 23.25 13.1562C23.1042 13.4062 22.9792 13.625 22.875 13.8125C22.7708 14 22.75 14.0729 22.8125 14.0312L24.875 12.6875ZM38.8438 32.5938C38.8021 32.1562 38.7708 31.625 38.75 31C38.75 30.375 38.75 29.7188 38.75 29.0312C38.75 28.3438 38.75 27.6458 38.75 26.9375C38.7708 26.2292 38.8021 25.5833 38.8438 25V23.875C38.7396 23.7292 38.6146 23.5833 38.4688 23.4375C38.3229 23.2708 38.0625 22.9583 37.6875 22.5C37.3333 22.0208 36.8229 21.3229 36.1562 20.4062C35.4896 19.4688 34.5938 18.1667 33.4688 16.5C33.0312 16.0417 32.75 15.6667 32.625 15.375C32.5 15.0625 32.4583 14.8125 32.5 14.625C32.5417 14.4375 32.6458 14.3021 32.8125 14.2188C33 14.1354 33.1771 14.0938 33.3438 14.0938C33.7604 14.0938 34.1354 14.1875 34.4688 14.375C34.8021 14.5625 35.1042 14.8021 35.375 15.0938C35.6458 15.3854 35.8854 15.7083 36.0938 16.0625C36.3229 16.3958 36.5417 16.7188 36.75 17.0312C36.875 17.2188 37.0312 17.4583 37.2188 17.75C37.4062 18.0417 37.5938 18.3333 37.7812 18.625C37.9688 18.8958 38.125 19.1354 38.25 19.3438C38.3958 19.5521 38.4688 19.6562 38.4688 19.6562L38.8438 20.0625V16.7812C38.8438 15.7396 38.8229 14.7292 38.7812 13.75C38.7396 12.75 38.7188 11.7396 38.7188 10.7188C38.7188 10.4271 38.8229 10.1875 39.0312 10C39.2396 9.8125 39.4896 9.72917 39.7812 9.75C40.1354 9.79167 40.3958 9.85417 40.5625 9.9375C40.75 10.0208 40.9375 10.1875 41.125 10.4375C41.2917 10.6667 41.3646 10.9375 41.3438 11.25C41.3438 11.5625 41.3542 11.8646 41.375 12.1562C41.4583 14.1354 41.5208 16.1146 41.5625 18.0938C41.625 20.0521 41.6562 22.0208 41.6562 24C41.6354 24.1875 41.625 24.5625 41.625 25.125C41.625 25.7083 41.625 26.3646 41.625 27.0938C41.6458 27.8229 41.6562 28.5833 41.6562 29.375C41.6771 30.1667 41.6875 30.8854 41.6875 31.5312C41.7083 32.1979 41.7188 32.7396 41.7188 33.1562C41.7396 33.5938 41.7604 33.8021 41.7812 33.7812C41.7812 34.0938 41.6667 34.3229 41.4375 34.4688C41.2292 34.6146 40.9688 34.6875 40.6562 34.6875C40.2396 34.6875 39.9271 34.625 39.7188 34.5C39.5312 34.3958 39.3854 34.2396 39.2812 34.0312C39.1771 33.8438 39.1042 33.625 39.0625 33.375C39.0208 33.125 38.9479 32.8646 38.8438 32.5938ZM48 22.8125C48 22.7083 48 22.6146 48 22.5312C48.0208 22.4479 48.0729 22.3646 48.1562 22.2812C48.4062 21.9688 48.6875 21.6458 49 21.3125C49.3125 20.9583 49.6146 20.6146 49.9062 20.2812C50.1979 19.9271 50.4688 19.5625 50.7188 19.1875C50.9688 18.8125 51.1771 18.4375 51.3438 18.0625V17.875L47.25 18.7188H46.7812C46.4896 18.7188 46.125 18.6979 45.6875 18.6562C45.2708 18.6146 44.8542 18.5312 44.4375 18.4062C44.0417 18.2604 43.6979 18.0625 43.4062 17.8125C43.1354 17.5625 43 17.2292 43 16.8125C43.0208 16.3333 43.2708 15.8021 43.75 15.2188C44.2292 14.6354 44.7917 14.0625 45.4375 13.5C46.0833 12.9375 46.7292 12.4167 47.375 11.9375C48.0417 11.4583 48.5729 11.0833 48.9688 10.8125C49.4062 10.5625 49.9271 10.3646 50.5312 10.2188C51.1354 10.0521 51.6875 9.96875 52.1875 9.96875C52.6042 9.96875 52.9688 10.0521 53.2812 10.2188C53.5938 10.3646 53.75 10.6667 53.75 11.125C53.75 11.3125 53.7292 11.4896 53.6875 11.6562C53.6667 11.8229 53.5417 11.9375 53.3125 12C52.6458 11.9375 52.0208 11.9896 51.4375 12.1562C50.8542 12.3021 50.3021 12.5312 49.7812 12.8438C49.2604 13.1562 48.7708 13.5312 48.3125 13.9688C47.8542 14.3854 47.4062 14.8229 46.9688 15.2812C46.8438 15.4271 46.6875 15.6354 46.5 15.9062C46.3125 16.1562 46.2188 16.3021 46.2188 16.3438V16.375C46.7604 16.375 47.2917 16.3229 47.8125 16.2188C48.3542 16.1146 48.8854 16.0104 49.4062 15.9062C49.9479 15.7812 50.4792 15.6667 51 15.5625C51.5417 15.4583 52.0938 15.4062 52.6562 15.4062C52.8646 15.4062 53.0938 15.4271 53.3438 15.4688C53.5938 15.4896 53.8229 15.5521 54.0312 15.6562C54.2604 15.7604 54.4375 15.9062 54.5625 16.0938C54.7083 16.2604 54.7812 16.4792 54.7812 16.75C54.7812 17.1458 54.6771 17.5312 54.4688 17.9062C54.2812 18.2604 53.9896 18.6979 53.5938 19.2188C53.2188 19.7188 52.7292 20.3333 52.125 21.0625C51.5417 21.7917 50.8438 22.7292 50.0312 23.875C49.9896 23.9375 49.8854 23.9792 49.7188 24C49.5729 24.0208 49.4479 24.0312 49.3438 24.0312C49.0521 24.0312 48.75 23.9062 48.4375 23.6562C48.1458 23.4062 48 23.125 48 22.8125ZM77.9062 17.125C77.9688 17.2292 77.9688 17.375 77.9062 17.5625C77.8646 17.7292 77.7917 17.9062 77.6875 18.0938C77.6042 18.2812 77.5 18.4479 77.375 18.5938C77.2708 18.7396 77.1667 18.8229 77.0625 18.8438C76.5208 19.0104 75.9375 19.0312 75.3125 18.9062C74.125 18.6979 73.0938 18.3438 72.2188 17.8438C71.3646 17.3229 70.6458 16.5833 70.0625 15.625C70 15.5625 69.9062 15.4167 69.7812 15.1875C69.6771 14.9583 69.6146 14.8229 69.5938 14.7812C69.3646 14.1771 69.3646 13.6042 69.5938 13.0625C69.8229 12.5208 70.25 12.1458 70.875 11.9375C70.9583 11.8958 71.0833 11.8646 71.25 11.8438C71.4167 11.8021 71.6042 11.7708 71.8125 11.75C72.0208 11.7083 72.2188 11.6771 72.4062 11.6562C72.5938 11.6146 72.75 11.5729 72.875 11.5312C72.5208 11.0938 72.0938 10.7188 71.5938 10.4062C71.1146 10.0729 70.5938 9.63542 70.0312 9.09375C69.9896 9.05208 69.9479 9 69.9062 8.9375C69.8854 8.875 69.8646 8.83333 69.8438 8.8125C69.5104 8.25 69.625 7.88542 70.1875 7.71875C70.375 7.55208 70.6667 7.38542 71.0625 7.21875C71.4792 7.03125 71.9375 6.875 72.4375 6.75C72.9375 6.60417 73.4583 6.51042 74 6.46875C74.5625 6.40625 75.0833 6.41667 75.5625 6.5C76.0417 6.5625 76.4583 6.71875 76.8125 6.96875C77.1875 7.19792 77.4375 7.54167 77.5625 8C77.75 8.22917 77.7604 8.4375 77.5938 8.625C77.4271 8.79167 77.2396 8.91667 77.0312 9C76.7604 9.10417 76.4896 9.15625 76.2188 9.15625C75.9688 9.13542 75.6979 9.11458 75.4062 9.09375C75.1354 9.07292 74.8542 9.0625 74.5625 9.0625C74.2708 9.0625 73.9583 9.11458 73.625 9.21875L73.4375 9.3125C73.75 9.5625 74.0938 9.8125 74.4688 10.0625C74.8646 10.2917 75.2396 10.5312 75.5938 10.7812C75.9688 11.0104 76.3021 11.2396 76.5938 11.4688C76.9062 11.6979 77.1458 11.9271 77.3125 12.1562C77.4375 12.3438 77.4688 12.5417 77.4062 12.75C77.3646 12.9583 77.2292 13.0938 77 13.1562C76.625 13.2812 76.2812 13.3646 75.9688 13.4062C75.6562 13.4479 75.3438 13.4792 75.0312 13.5C74.7188 13.5208 74.4062 13.5521 74.0938 13.5938C73.7812 13.6146 73.4375 13.6875 73.0625 13.8125C72.7083 13.9792 72.5833 14.2083 72.6875 14.5C72.7917 14.7917 73.0104 15.0938 73.3438 15.4062C73.6771 15.7188 74.0625 16.0104 74.5 16.2812C74.9375 16.5312 75.3229 16.6979 75.6562 16.7812C75.8438 16.8438 76.1667 16.8438 76.625 16.7812C76.6458 16.7812 76.7396 16.7708 76.9062 16.75C77.0938 16.7292 77.1979 16.7083 77.2188 16.6875C77.4271 16.6875 77.5625 16.7292 77.625 16.8125C77.7083 16.875 77.8021 16.9792 77.9062 17.125ZM73.2188 24.5312C73.1354 24.1146 73.0625 23.6146 73 23.0312C72.9375 22.4479 72.8542 21.9479 72.75 21.5312C72.7917 21.2604 72.8958 21.0312 73.0625 20.8438C73.25 20.6562 73.4792 20.5312 73.75 20.4688C74.2708 20.3854 74.6667 20.4792 74.9375 20.75C75.2083 21.0208 75.375 21.375 75.4375 21.8125C75.4792 22 75.5312 22.2917 75.5938 22.6875C75.6771 23.0833 75.7188 23.4792 75.7188 23.875C75.7396 24.2708 75.6979 24.6146 75.5938 24.9062C75.5104 25.2188 75.3333 25.375 75.0625 25.375C74.7292 25.375 74.4583 25.375 74.25 25.375C74.0417 25.375 73.8646 25.3542 73.7188 25.3125C73.5729 25.2708 73.4583 25.1875 73.375 25.0625C73.3125 24.9375 73.2604 24.7604 73.2188 24.5312ZM71.9688 3.15625C71.9479 2.96875 71.9375 2.82292 71.9375 2.71875C71.9375 2.61458 71.9375 2.52083 71.9375 2.4375C71.9375 2.33333 71.9375 2.22917 71.9375 2.125C71.9583 2 71.9583 1.83333 71.9375 1.625C71.9583 1.35417 72.0625 1.125 72.25 0.9375C72.4375 0.729167 72.6667 0.604167 72.9375 0.5625C73.4792 0.479167 73.8646 0.572917 74.0938 0.84375C74.3438 1.09375 74.5208 1.42708 74.625 1.84375C74.6458 2.05208 74.6771 2.35417 74.7188 2.75C74.7604 3.14583 74.7708 3.55208 74.75 3.96875C74.75 4.36458 74.6875 4.71875 74.5625 5.03125C74.4583 5.32292 74.2708 5.46875 74 5.46875C73.6458 5.46875 73.3542 5.38542 73.125 5.21875C72.8958 5.05208 72.6979 4.85417 72.5312 4.625C72.3854 4.39583 72.2708 4.15625 72.1875 3.90625C72.1042 3.63542 72.0312 3.38542 71.9688 3.15625ZM102 21.5C101.792 21.2708 101.594 21.0417 101.406 20.8125C101.219 20.5833 101.01 20.375 100.781 20.1875L100.719 20.1562C100.635 20.1562 100.469 20.3333 100.219 20.6875C99.9896 21.0208 99.6771 21.4062 99.2812 21.8438C98.9062 22.2604 98.4583 22.6458 97.9375 23C97.4375 23.3333 96.8646 23.5 96.2188 23.5C95.5938 23.5 95.0625 23.3229 94.625 22.9688C94.1875 22.6146 93.8229 22.1771 93.5312 21.6562C93.2604 21.1146 93.0625 20.5417 92.9375 19.9375C92.8125 19.3333 92.75 18.7812 92.75 18.2812C92.75 17.9688 92.7708 17.6667 92.8125 17.375C92.875 17.0833 92.8958 16.7917 92.875 16.5C92.9375 16.2292 93.0417 15.75 93.1875 15.0625C93.3542 14.375 93.5208 13.6458 93.6875 12.875C93.875 12.0833 94.0521 11.3438 94.2188 10.6562C94.3854 9.96875 94.5 9.48958 94.5625 9.21875C94.5833 9.09375 94.6458 8.88542 94.75 8.59375C94.8542 8.30208 94.9583 7.98958 95.0625 7.65625C95.1875 7.30208 95.3021 6.97917 95.4062 6.6875C95.5104 6.39583 95.5833 6.1875 95.625 6.0625C95.7292 5.97917 95.8021 5.89583 95.8438 5.8125C95.9062 5.72917 95.9583 5.65625 96 5.59375C96.0625 5.53125 96.125 5.47917 96.1875 5.4375C96.2708 5.39583 96.3854 5.375 96.5312 5.375C96.8438 5.375 97.1667 5.44792 97.5 5.59375C97.8542 5.73958 98.0729 5.98958 98.1562 6.34375C98.1979 6.51042 98.1979 6.60417 98.1562 6.625C98.1146 6.625 98.1562 6.69792 98.2812 6.84375C98.5729 6.73958 98.875 6.67708 99.1875 6.65625C99.5 6.61458 99.8021 6.59375 100.094 6.59375C100.656 6.59375 101.094 6.77083 101.406 7.125C101.74 7.45833 101.979 7.875 102.125 8.375C102.292 8.85417 102.396 9.36458 102.438 9.90625C102.479 10.4271 102.5 10.8854 102.5 11.2812C102.5 11.4688 102.49 11.6979 102.469 11.9688C102.448 12.2396 102.427 12.5208 102.406 12.8125C102.385 13.1042 102.365 13.3958 102.344 13.6875C102.344 13.9583 102.354 14.1875 102.375 14.375L101.719 17.4062C101.698 17.4062 101.771 17.5104 101.938 17.7188C102.125 17.9271 102.271 18.0938 102.375 18.2188C102.396 18.2396 102.448 18.3021 102.531 18.4062C102.635 18.4896 102.729 18.5833 102.812 18.6875C102.917 18.7708 103.01 18.8646 103.094 18.9688C103.177 19.0521 103.229 19.1042 103.25 19.125C103.292 19.1458 103.323 19.1875 103.344 19.25C103.385 19.3125 103.417 19.3646 103.438 19.4062L109.875 26.125C109.896 26.1458 109.938 26.2188 110 26.3438C110.062 26.4688 110.115 26.5625 110.156 26.625V26.6562C110.156 26.6771 110.167 26.6979 110.188 26.7188C110.188 27.0729 110.073 27.3646 109.844 27.5938C109.615 27.8438 109.344 27.9688 109.031 27.9688C108.865 27.9688 108.677 27.9479 108.469 27.9062C108.281 27.8854 108.135 27.8229 108.031 27.7188L102 21.5ZM95.375 17.7812C95.2708 18.2604 95.2708 18.7188 95.375 19.1562C95.4792 19.5938 95.6146 20.0208 95.7812 20.4375C95.8229 20.5208 95.875 20.6562 95.9375 20.8438C96.0208 21.0312 96.1146 21.125 96.2188 21.125C96.4062 21.125 96.625 21.0312 96.875 20.8438C97.1458 20.6354 97.4062 20.3958 97.6562 20.125C97.9062 19.8333 98.1146 19.5417 98.2812 19.25C98.4479 18.9375 98.5312 18.6771 98.5312 18.4688C98.5312 18.1979 98.4375 17.9792 98.25 17.8125C98.0833 17.6458 98 17.4271 98 17.1562C98 16.8438 98.0521 16.625 98.1562 16.5C98.2812 16.375 98.4271 16.2917 98.5938 16.25C98.7604 16.2083 98.9271 16.1771 99.0938 16.1562C99.2812 16.1354 99.4479 16.0729 99.5938 15.9688C99.6979 15.8854 99.7917 15.6562 99.875 15.2812C99.9792 14.9062 100.062 14.5 100.125 14.0625C100.208 13.625 100.271 13.2083 100.312 12.8125C100.354 12.3958 100.375 12.1042 100.375 11.9375C100.375 11.7083 100.375 11.4479 100.375 11.1562C100.375 10.8646 100.365 10.5729 100.344 10.2812C100.323 9.96875 100.281 9.66667 100.219 9.375C100.177 9.08333 100.104 8.8125 100 8.5625H99.8125C99.3958 8.5625 99.0104 8.67708 98.6562 8.90625C98.3229 9.13542 98.0208 9.41667 97.75 9.75C97.5 10.0833 97.2708 10.4479 97.0625 10.8438C96.8542 11.2188 96.6771 11.5625 96.5312 11.875C96.4896 11.9792 96.4271 12.125 96.3438 12.3125C96.2604 12.5 96.2396 12.6667 96.2812 12.8125L95.375 17.7812ZM115.062 21.0312C114.917 21.3438 114.771 21.6875 114.625 22.0625C114.479 22.4167 114.312 22.7396 114.125 23.0312C113.938 23.3229 113.708 23.5729 113.438 23.7812C113.167 23.9688 112.823 24.0625 112.406 24.0625C111.677 24.0625 111.073 23.8854 110.594 23.5312C110.115 23.1562 109.719 22.6979 109.406 22.1562C109.115 21.5938 108.906 20.9896 108.781 20.3438C108.656 19.6979 108.594 19.0938 108.594 18.5312L108.844 10.9688C108.823 10.8229 108.854 10.6771 108.938 10.5312C109.042 10.3646 109.167 10.2188 109.312 10.0938C109.479 9.94792 109.656 9.83333 109.844 9.75C110.052 9.66667 110.24 9.625 110.406 9.625C110.885 9.625 111.292 9.78125 111.625 10.0938C111.958 10.3854 112.125 10.7708 112.125 11.25V11.5625C111.896 11.9375 111.698 12.4271 111.531 13.0312C111.365 13.6354 111.229 14.2917 111.125 15C111.042 15.6875 110.99 16.3958 110.969 17.125C110.948 17.8542 110.969 18.5208 111.031 19.125C111.115 19.7292 111.24 20.25 111.406 20.6875C111.573 21.1042 111.792 21.3542 112.062 21.4375C112.167 21.4375 112.323 21.3854 112.531 21.2812C112.76 21.1771 113 20.9792 113.25 20.6875C113.5 20.3958 113.76 19.9896 114.031 19.4688C114.302 18.9271 114.542 18.2188 114.75 17.3438C114.958 16.4688 115.115 15.4062 115.219 14.1562C115.323 12.9062 115.354 11.4062 115.312 9.65625C115.396 9.42708 115.51 9.30208 115.656 9.28125C115.823 9.26042 115.99 9.25 116.156 9.25C116.344 9.25 116.5 9.26042 116.625 9.28125C116.75 9.28125 116.885 9.35417 117.031 9.5C117.135 9.60417 117.25 9.76042 117.375 9.96875C117.5 10.1771 117.562 10.2917 117.562 10.3125L118.094 24.1562C118.094 24.4688 118.01 24.7292 117.844 24.9375C117.677 25.1458 117.438 25.25 117.125 25.25C117.021 25.25 116.896 25.2396 116.75 25.2188C116.604 25.1979 116.458 25.1562 116.312 25.0938C116.167 25.0312 116.031 24.9479 115.906 24.8438C115.802 24.7604 115.74 24.6562 115.719 24.5312L115.188 21.4062L115.062 21.0312ZM132.875 15.125C132.833 15.5 132.781 15.7917 132.719 16C132.677 16.2083 132.594 16.3958 132.469 16.5625C132.344 16.7292 132.167 16.9062 131.938 17.0938C131.708 17.2604 131.396 17.5104 131 17.8438C130.604 18.1562 130.115 18.5729 129.531 19.0938C128.948 19.6146 128.24 20.2917 127.406 21.125C127.073 21.4375 126.729 21.7604 126.375 22.0938C126.021 22.4271 125.646 22.7292 125.25 23C124.875 23.25 124.479 23.4583 124.062 23.625C123.646 23.7917 123.208 23.875 122.75 23.875C121.854 23.875 121.198 23.5729 120.781 22.9688C120.365 22.3646 120.156 21.6667 120.156 20.875C120.156 20.3542 120.167 19.9167 120.188 19.5625C120.229 19.2083 120.312 18.75 120.438 18.1875C120.208 17.9792 120.01 17.8021 119.844 17.6562C119.677 17.4896 119.594 17.2708 119.594 17C119.594 16.75 119.646 16.5833 119.75 16.5C119.875 16.4167 120.01 16.3646 120.156 16.3438C120.323 16.3021 120.479 16.2604 120.625 16.2188C120.771 16.1771 120.875 16.0938 120.938 15.9688C120.979 15.8438 121.052 15.6146 121.156 15.2812C121.281 14.9479 121.406 14.6042 121.531 14.25C121.656 13.875 121.771 13.5312 121.875 13.2188C122 12.8854 122.083 12.6562 122.125 12.5312C122.271 12.1771 122.427 11.8229 122.594 11.4688C122.781 11.0938 122.99 10.7604 123.219 10.4688C123.469 10.1771 123.75 9.9375 124.062 9.75C124.396 9.5625 124.781 9.46875 125.219 9.46875C125.469 9.46875 125.771 9.58333 126.125 9.8125C126.5 10.0417 126.854 10.3229 127.188 10.6562C127.521 10.9688 127.802 11.3021 128.031 11.6562C128.26 12.0104 128.375 12.3125 128.375 12.5625C128.375 12.875 128.302 13.1667 128.156 13.4375C128.01 13.6875 127.823 13.9271 127.594 14.1562C127.385 14.3646 127.156 14.5625 126.906 14.75C126.656 14.9375 126.427 15.1146 126.219 15.2812C126.198 15.2812 126.156 15.3021 126.094 15.3438C126.031 15.3854 125.979 15.4167 125.938 15.4375C125.917 15.4583 125.865 15.5104 125.781 15.5938C125.719 15.6562 125.646 15.7292 125.562 15.8125C125.479 15.8958 125.396 15.9792 125.312 16.0625C125.25 16.1458 125.208 16.1979 125.188 16.2188C125.125 16.2812 125 16.3854 124.812 16.5312C124.646 16.6562 124.458 16.8021 124.25 16.9688C124.042 17.1146 123.844 17.2604 123.656 17.4062C123.49 17.5312 123.375 17.6146 123.312 17.6562L123.188 17.9062C123.146 17.9896 123.104 18.1771 123.062 18.4688C123.042 18.7396 123.01 19.0521 122.969 19.4062C122.927 19.7604 122.885 20.125 122.844 20.5C122.823 20.8542 122.812 21.1458 122.812 21.375C122.812 21.3958 122.823 21.4167 122.844 21.4375C122.885 21.4792 122.917 21.5 122.938 21.5C123.104 21.5 123.26 21.4271 123.406 21.2812C123.552 21.1354 123.708 21.0312 123.875 20.9688L128.875 16.3438L130.156 14.375C130.26 14.2292 130.458 14.0729 130.75 13.9062C131.062 13.7188 131.375 13.625 131.688 13.625C132 13.6042 132.271 13.6979 132.5 13.9062C132.75 14.1146 132.875 14.5208 132.875 15.125ZM126 12.6875C126.104 12.6042 126.146 12.4792 126.125 12.3125C126.104 12.1458 126.042 12 125.938 11.875C125.854 11.75 125.74 11.6771 125.594 11.6562C125.448 11.6146 125.312 11.6875 125.188 11.875C125.125 11.9583 125.01 12.125 124.844 12.375C124.698 12.625 124.542 12.8854 124.375 13.1562C124.229 13.4062 124.104 13.625 124 13.8125C123.896 14 123.875 14.0729 123.938 14.0312L126 12.6875ZM138.438 22.8125C138.438 22.7083 138.438 22.6146 138.438 22.5312C138.458 22.4479 138.51 22.3646 138.594 22.2812C138.844 21.9688 139.125 21.6458 139.438 21.3125C139.75 20.9583 140.052 20.6146 140.344 20.2812C140.635 19.9271 140.906 19.5625 141.156 19.1875C141.406 18.8125 141.615 18.4375 141.781 18.0625V17.875L137.688 18.7188H137.219C136.927 18.7188 136.562 18.6979 136.125 18.6562C135.708 18.6146 135.292 18.5312 134.875 18.4062C134.479 18.2604 134.135 18.0625 133.844 17.8125C133.573 17.5625 133.438 17.2292 133.438 16.8125C133.458 16.3333 133.708 15.8021 134.188 15.2188C134.667 14.6354 135.229 14.0625 135.875 13.5C136.521 12.9375 137.167 12.4167 137.812 11.9375C138.479 11.4583 139.01 11.0833 139.406 10.8125C139.844 10.5625 140.365 10.3646 140.969 10.2188C141.573 10.0521 142.125 9.96875 142.625 9.96875C143.042 9.96875 143.406 10.0521 143.719 10.2188C144.031 10.3646 144.188 10.6667 144.188 11.125C144.188 11.3125 144.167 11.4896 144.125 11.6562C144.104 11.8229 143.979 11.9375 143.75 12C143.083 11.9375 142.458 11.9896 141.875 12.1562C141.292 12.3021 140.74 12.5312 140.219 12.8438C139.698 13.1562 139.208 13.5312 138.75 13.9688C138.292 14.3854 137.844 14.8229 137.406 15.2812C137.281 15.4271 137.125 15.6354 136.938 15.9062C136.75 16.1562 136.656 16.3021 136.656 16.3438V16.375C137.198 16.375 137.729 16.3229 138.25 16.2188C138.792 16.1146 139.323 16.0104 139.844 15.9062C140.385 15.7812 140.917 15.6667 141.438 15.5625C141.979 15.4583 142.531 15.4062 143.094 15.4062C143.302 15.4062 143.531 15.4271 143.781 15.4688C144.031 15.4896 144.26 15.5521 144.469 15.6562C144.698 15.7604 144.875 15.9062 145 16.0938C145.146 16.2604 145.219 16.4792 145.219 16.75C145.219 17.1458 145.115 17.5312 144.906 17.9062C144.719 18.2604 144.427 18.6979 144.031 19.2188C143.656 19.7188 143.167 20.3333 142.562 21.0625C141.979 21.7917 141.281 22.7292 140.469 23.875C140.427 23.9375 140.323 23.9792 140.156 24C140.01 24.0208 139.885 24.0312 139.781 24.0312C139.49 24.0312 139.188 23.9062 138.875 23.6562C138.583 23.4062 138.438 23.125 138.438 22.8125ZM149.594 14.875C149.302 14.875 149.042 14.9479 148.812 15.0938C148.583 15.2396 148.312 15.3125 148 15.3125C147.958 15.3125 147.844 15.3125 147.656 15.3125C147.49 15.2917 147.385 15.2812 147.344 15.2812C147.26 15.1771 147.167 15.0938 147.062 15.0312C146.958 14.9688 146.854 14.9062 146.75 14.8438C146.646 14.7604 146.552 14.6667 146.469 14.5625C146.406 14.4583 146.375 14.3125 146.375 14.125C146.375 13.8125 146.5 13.5625 146.75 13.375C147 13.1667 147.292 12.9896 147.625 12.8438C147.958 12.6979 148.292 12.5625 148.625 12.4375C148.979 12.3125 149.26 12.1667 149.469 12V10.625C149.469 9.08333 149.396 7.54167 149.25 6C149.104 4.4375 149.031 2.89583 149.031 1.375C149.031 0.958333 149.135 0.6875 149.344 0.5625C149.552 0.4375 149.833 0.375 150.188 0.375C150.604 0.375 150.906 0.5 151.094 0.75C151.302 0.979167 151.448 1.27083 151.531 1.625C151.615 1.95833 151.656 2.32292 151.656 2.71875C151.656 3.09375 151.667 3.41667 151.688 3.6875C151.688 3.95833 151.708 4.4375 151.75 5.125C151.792 5.8125 151.833 6.54167 151.875 7.3125C151.917 8.08333 151.958 8.8125 152 9.5C152.042 10.1875 152.073 10.6667 152.094 10.9375C152.177 10.9167 152.333 10.8646 152.562 10.7812C152.812 10.6771 153.073 10.5833 153.344 10.5C153.615 10.3958 153.865 10.3021 154.094 10.2188C154.344 10.1354 154.521 10.0729 154.625 10.0312C155.167 9.80208 155.729 9.55208 156.312 9.28125C156.896 8.98958 157.49 8.84375 158.094 8.84375C158.51 8.84375 158.823 8.98958 159.031 9.28125C159.26 9.55208 159.375 9.875 159.375 10.25C159.375 10.5208 159.271 10.7188 159.062 10.8438C158.854 10.9688 158.635 11.0833 158.406 11.1875L152.719 13.3125C152.656 13.3542 152.594 13.3958 152.531 13.4375C152.469 13.4583 152.406 13.5 152.344 13.5625V14.5625C152.344 15.2917 152.354 16.0521 152.375 16.8438C152.417 17.6146 152.49 18.3646 152.594 19.0938C152.698 19.7188 152.812 20.3333 152.938 20.9375C153.062 21.5417 153.125 22.1562 153.125 22.7812C153.125 22.9688 153.062 23.2188 152.938 23.5312C152.812 23.8438 152.615 24 152.344 24C151.781 24 151.323 23.8333 150.969 23.5C150.615 23.1667 150.417 22.7188 150.375 22.1562C150.271 21.0729 150.156 19.8854 150.031 18.5938C149.927 17.3021 149.823 16.0625 149.719 14.875H149.594ZM165.094 22.8125C165.094 22.7083 165.094 22.6146 165.094 22.5312C165.115 22.4479 165.167 22.3646 165.25 22.2812C165.5 21.9688 165.781 21.6458 166.094 21.3125C166.406 20.9583 166.708 20.6146 167 20.2812C167.292 19.9271 167.562 19.5625 167.812 19.1875C168.062 18.8125 168.271 18.4375 168.438 18.0625V17.875L164.344 18.7188H163.875C163.583 18.7188 163.219 18.6979 162.781 18.6562C162.365 18.6146 161.948 18.5312 161.531 18.4062C161.135 18.2604 160.792 18.0625 160.5 17.8125C160.229 17.5625 160.094 17.2292 160.094 16.8125C160.115 16.3333 160.365 15.8021 160.844 15.2188C161.323 14.6354 161.885 14.0625 162.531 13.5C163.177 12.9375 163.823 12.4167 164.469 11.9375C165.135 11.4583 165.667 11.0833 166.062 10.8125C166.5 10.5625 167.021 10.3646 167.625 10.2188C168.229 10.0521 168.781 9.96875 169.281 9.96875C169.698 9.96875 170.062 10.0521 170.375 10.2188C170.688 10.3646 170.844 10.6667 170.844 11.125C170.844 11.3125 170.823 11.4896 170.781 11.6562C170.76 11.8229 170.635 11.9375 170.406 12C169.74 11.9375 169.115 11.9896 168.531 12.1562C167.948 12.3021 167.396 12.5312 166.875 12.8438C166.354 13.1562 165.865 13.5312 165.406 13.9688C164.948 14.3854 164.5 14.8229 164.062 15.2812C163.938 15.4271 163.781 15.6354 163.594 15.9062C163.406 16.1562 163.312 16.3021 163.312 16.3438V16.375C163.854 16.375 164.385 16.3229 164.906 16.2188C165.448 16.1146 165.979 16.0104 166.5 15.9062C167.042 15.7812 167.573 15.6667 168.094 15.5625C168.635 15.4583 169.188 15.4062 169.75 15.4062C169.958 15.4062 170.188 15.4271 170.438 15.4688C170.688 15.4896 170.917 15.5521 171.125 15.6562C171.354 15.7604 171.531 15.9062 171.656 16.0938C171.802 16.2604 171.875 16.4792 171.875 16.75C171.875 17.1458 171.771 17.5312 171.562 17.9062C171.375 18.2604 171.083 18.6979 170.688 19.2188C170.312 19.7188 169.823 20.3333 169.219 21.0625C168.635 21.7917 167.938 22.7292 167.125 23.875C167.083 23.9375 166.979 23.9792 166.812 24C166.667 24.0208 166.542 24.0312 166.438 24.0312C166.146 24.0312 165.844 23.9062 165.531 23.6562C165.24 23.4062 165.094 23.125 165.094 22.8125Z" fill="black"/>
</svg>
